<svg width="16" height="16" viewBox="0 0 6 3" fill="none" xmlns="http://www.w3.org/2000/svg">
<path d="M5.78893 0.462013C5.82203 0.428832 5.84061 0.383879 5.84061 0.337013C5.84061 0.290147 5.82203 0.245194 5.78893 0.212013C5.75575 0.178916 5.7108 0.160328 5.66393 0.160328C5.61706 0.160328 5.57211 0.178916 5.53893 0.212013L3.34093 2.41001L1.14093 0.210014C1.10725 0.179561 1.06316 0.163212 1.01777 0.164352C0.972379 0.165493 0.929163 0.184035 0.897057 0.216141C0.864951 0.248247 0.846411 0.291463 0.845271 0.336853C0.84413 0.382243 0.860477 0.426337 0.89093 0.460014L3.21593 2.78901C3.24911 2.82211 3.29406 2.8407 3.34093 2.8407C3.3878 2.8407 3.43275 2.82211 3.46593 2.78901L5.78893 0.462013Z" fill="white"/>
</svg>
